<?xml version="1.0"?>
<svg xmlns:rdf="http://www.w3.org/1999/02/22-rdf-syntax-ns#" xmlns="http://www.w3.org/2000/svg" xmlns:cc="http://creativecommons.org/ns#" xmlns:xlink="http://www.w3.org/1999/xlink" xmlns:dc="http://purl.org/dc/elements/1.1/" xmlns:svg="http://www.w3.org/2000/svg" id="Layer_1" version="1.1" xml:space="preserve" viewBox="0 0 98.325027 85.880819" enable-background="new 0 0 841.89 595.275" y="0px" x="0px"><defs id="defs3753"><linearGradient id="linearGradient3621"><stop id="stop3623" stop-color="#eee" offset="0"/><stop id="stop3625" stop-color="#eee" stop-opacity="0" offset="1"/></linearGradient>
<linearGradient id="linearGradient3659" x1="-1.1147" xlink:href="#linearGradient3621" gradientUnits="userSpaceOnUse" x2="98.542" y1="-2.406" y2="39.817"/><linearGradient id="linearGradient3663" x1="39.096" xlink:href="#linearGradient3621" gradientUnits="userSpaceOnUse" x2="56.122" y1="61.761" y2="61.761"/></defs>
<path id="path3741" d="m49.14 18.768c-12.727-29.78-48.901-22.832-49.139 11.732-0.13175 18.983 17.225 26.079 28.783 33.667 11.206 7.3608 19.182 17.428 20.432 21.714 1.0703-4.1995 9.9527-14.552 20.327-21.919 11.343-8.0561 28.915-14.686 28.782-33.669-0.24-34.649-37.043-40.118-49.185-11.525z" fill="#d40000"/>
<path id="path2845" d="m49.141 19.646c-12.092-28.697-46.461-22.001-46.688 11.307-0.1248 18.293 16.366 25.13 27.347 32.443 10.647 7.093 18.225 16.795 19.413 20.924 1.017-4.047 9.456-14.023 19.312-21.122 10.777-7.763 27.473-14.152 27.347-32.445-0.227-33.39-35.195-38.66-46.731-11.107z" fill="#e50000"/><path id="path3619" opacity=".54812" fill="url(#linearGradient3659)" d="m25.188 1.5625c-11.692 0.3324-22.623 10.64-22.75 29.376-0.0044 0.571 0.0341 1.137 0.062 1.687 0.0028 0.001-0.0028 0.03 0 0.031 23.617 6.526 58.611 11.794 93.25 0.813 0.08-0.881 0.131-1.777 0.125-2.719-0.227-33.39-35.183-38.647-46.719-11.094-5.29-12.555-14.875-18.352-23.968-18.094z"/><path id="path3661" opacity=".54812" transform="matrix(.67149 .43042 -.46814 .61739 77.816 -33.279)" fill="url(#linearGradient3663)" d="m56.122 61.761a8.5129 6.1482 0 1 1 -17.026 0 8.5129 6.1482 0 1 1 17.026 0z"/><path id="path3665" opacity=".54812" transform="matrix(.43998 .26323 -.30674 .37757 47.656 31.27)" fill="url(#linearGradient3663)" d="m56.122 61.761a8.5129 6.1482 0 1 1 -17.026 0 8.5129 6.1482 0 1 1 17.026 0z"/><metadata><rdf:RDF><cc:Work><dc:format>image/svg+xml</dc:format><dc:type rdf:resource="http://purl.org/dc/dcmitype/StillImage"/><cc:license rdf:resource="http://creativecommons.org/licenses/publicdomain/"/><dc:publisher><cc:Agent rdf:about="http://openclipart.org/"><dc:title>Openclipart</dc:title></cc:Agent></dc:publisher><dc:title>heart-shine</dc:title><dc:date>2010-08-04T13:18:39</dc:date><dc:description>Red heart</dc:description><dc:source>http://openclipart.org/detail/77407/heart-shine-by-shokunin</dc:source><dc:creator><cc:Agent><dc:title>shokunin</dc:title></cc:Agent></dc:creator><dc:subject><rdf:Bag><rdf:li>clip art</rdf:li><rdf:li>clipart</rdf:li><rdf:li>hear</rdf:li><rdf:li>love</rdf:li><rdf:li>red</rdf:li><rdf:li>valentines day</rdf:li><rdf:li>web 2.0</rdf:li></rdf:Bag></dc:subject></cc:Work><cc:License rdf:about="http://creativecommons.org/licenses/publicdomain/"><cc:permits rdf:resource="http://creativecommons.org/ns#Reproduction"/><cc:permits rdf:resource="http://creativecommons.org/ns#Distribution"/><cc:permits rdf:resource="http://creativecommons.org/ns#DerivativeWorks"/></cc:License></rdf:RDF></metadata></svg>
